<?xml version="1.0" standalone="no"?>
<svg xmlns="http://www.w3.org/2000/svg" viewBox="0 0 111.36479999999999 16.704" width="111.36479999999999" height="16.704"><path fill="#000000" fill-rule="nonzero" d="M6.05 16.70L3.29 16.70Q3.22 16.70 3.22 16.61L3.22 16.61L3.24 9.79L0.02 0.10Q0 0 0.10 0L0.10 0L2.76 0Q2.88 0 2.90 0.10L2.90 0.10L4.68 6.55L6.48 0.10Q6.50 0 6.60 0L6.60 0L9.29 0Q9.38 0 9.36 0.10L9.36 0.10L6.12 9.70L6.14 16.61Q6.14 16.70 6.05 16.70L6.05 16.70ZM8.42 16.58L8.42 16.58L11.40 0.10Q11.42 0 11.52 0L11.52 0L15 0Q15.10 0 15.12 0.10L15.12 0.10L17.98 16.58Q18 16.70 17.88 16.70L17.88 16.70L15.22 16.70Q15.12 16.70 15.10 16.58L15.10 16.58L14.83 14.83L11.57 14.83L11.30 16.58Q11.28 16.70 11.18 16.70L11.18 16.70L8.52 16.70Q8.42 16.70 8.42 16.58ZM13.13 5.52L12.05 12.26L14.35 12.26L13.37 5.52L13.22 4.63L13.13 5.52ZM22.30 16.70L19.58 16.70Q19.49 16.70 19.49 16.58L19.49 16.58L19.54 0.12Q19.54 0 19.63 0L19.63 0L22.32 0Q22.42 0 22.42 0.12L22.42 0.12L22.42 5.81L26.18 0.10Q26.26 0 26.35 0L26.35 0L29.11 0Q29.21 0 29.16 0.10L29.16 0.10L25.01 6.72L29.66 16.61Q29.71 16.70 29.54 16.70L29.54 16.70L26.62 16.70Q26.50 16.70 26.47 16.61L26.47 16.61L23.23 9.55L22.39 10.87L22.39 16.58Q22.39 16.70 22.30 16.70L22.30 16.70ZM29.93 16.58L29.93 16.58L32.90 0.10Q32.93 0 33.02 0L33.02 0L36.50 0Q36.60 0 36.62 0.10L36.62 0.10L39.48 16.58Q39.50 16.70 39.38 16.70L39.38 16.70L36.72 16.70Q36.62 16.70 36.60 16.58L36.60 16.58L36.34 14.83L33.07 14.83L32.81 16.58Q32.78 16.70 32.69 16.70L32.69 16.70L30.02 16.70Q29.93 16.70 29.93 16.58ZM34.63 5.52L33.55 12.26L35.86 12.26L34.87 5.52L34.73 4.63L34.63 5.52ZM48.84 16.70L41.09 16.70Q40.99 16.70 40.99 16.58L40.99 16.58L41.02 0.10Q41.02 0 41.11 0L41.11 0L48.82 0Q48.91 0 48.91 0.12L48.91 0.12L48.91 2.81Q48.91 2.90 48.82 2.90L48.82 2.90L43.90 2.90L43.90 6.65L48.82 6.65Q48.91 6.65 48.91 6.74L48.91 6.74L48.94 9.46Q48.94 9.55 48.84 9.55L48.84 9.55L43.90 9.55L43.90 13.75L48.84 13.75Q48.94 13.75 48.94 13.87L48.94 13.87L48.94 16.61Q48.94 16.70 48.84 16.70L48.84 16.70ZM56.18 16.70L53.47 16.70Q53.38 16.70 53.38 16.58L53.38 16.58L53.38 2.90L50.26 2.90Q50.14 2.90 50.14 2.78L50.14 2.78L50.16 0.10Q50.16 0 50.26 0L50.26 0L59.38 0Q59.50 0 59.50 0.10L59.50 0.10L59.50 2.78Q59.50 2.90 59.40 2.90L59.40 2.90L56.26 2.90L56.28 16.58Q56.28 16.70 56.18 16.70L56.18 16.70ZM63.48 16.70L60.77 16.70Q60.67 16.70 60.67 16.58L60.67 16.58L60.72 0.10Q60.72 0 60.82 0L60.82 0L65.66 0Q66.96 0 68.05 0.64Q69.14 1.27 69.79 2.34Q70.44 3.41 70.44 4.75L70.44 4.75Q70.44 5.64 70.18 6.35Q69.91 7.06 69.55 7.55Q69.19 8.04 68.90 8.28L68.90 8.28Q70.20 9.72 70.20 11.66L70.20 11.66L70.22 16.58Q70.22 16.70 70.10 16.70L70.10 16.70L67.39 16.70Q67.30 16.70 67.30 16.63L67.30 16.63L67.30 11.66Q67.30 10.80 66.68 10.16Q66.07 9.53 65.18 9.53L65.18 9.53L63.60 9.53L63.58 16.58Q63.58 16.70 63.48 16.70L63.48 16.70ZM63.60 2.88L63.60 6.65L65.66 6.65Q66.41 6.65 66.98 6.10Q67.56 5.54 67.56 4.75L67.56 4.75Q67.56 3.98 67.00 3.43Q66.43 2.88 65.66 2.88L65.66 2.88L63.60 2.88ZM80.09 16.70L72.34 16.70Q72.24 16.70 72.24 16.58L72.24 16.58L72.26 0.10Q72.26 0 72.36 0L72.36 0L80.06 0Q80.16 0 80.16 0.12L80.16 0.12L80.16 2.81Q80.16 2.90 80.06 2.90L80.06 2.90L75.14 2.90L75.14 6.65L80.06 6.65Q80.16 6.65 80.16 6.74L80.16 6.74L80.18 9.46Q80.18 9.55 80.09 9.55L80.09 9.55L75.14 9.55L75.14 13.75L80.09 13.75Q80.18 13.75 80.18 13.87L80.18 13.87L80.18 16.61Q80.18 16.70 80.09 16.70L80.09 16.70ZM90.62 16.70L81.67 16.70Q81.55 16.70 81.55 16.58L81.55 16.58L81.58 13.97L87.46 2.74L81.89 2.74Q81.79 2.74 81.79 2.64L81.79 2.64L81.79 0.12Q81.79 0 81.89 0L81.89 0L90.58 0Q90.70 0 90.70 0.12L90.70 0.12L90.70 2.71L84.84 13.90L90.62 13.90Q90.72 13.90 90.72 14.02L90.72 14.02L90.74 16.58Q90.74 16.70 90.62 16.70L90.62 16.70ZM100.10 16.70L92.35 16.70Q92.26 16.70 92.26 16.58L92.26 16.58L92.28 0.10Q92.28 0 92.38 0L92.38 0L100.08 0Q100.18 0 100.18 0.12L100.18 0.12L100.18 2.81Q100.18 2.90 100.08 2.90L100.08 2.90L95.16 2.90L95.16 6.65L100.08 6.65Q100.18 6.65 100.18 6.74L100.18 6.74L100.20 9.46Q100.20 9.55 100.10 9.55L100.10 9.55L95.16 9.55L95.16 13.75L100.10 13.75Q100.20 13.75 100.20 13.87L100.20 13.87L100.20 16.61Q100.20 16.70 100.10 16.70L100.10 16.70ZM104.95 16.70L102.55 16.70Q102.36 16.70 102.36 16.54L102.36 16.54L102.34 0.19Q102.34 0 102.53 0L102.53 0L104.69 0L108.74 9.46L108.62 0.19Q108.62 0 108.84 0L108.84 0L111.22 0Q111.36 0 111.36 0.19L111.36 0.19L111.38 16.56Q111.38 16.70 111.26 16.70L111.26 16.70L109.15 16.70L105.00 7.87L105.17 16.51Q105.17 16.70 104.95 16.70L104.95 16.70Z"></path></svg>